<svg viewBox="0 0 24 24" fill="none" xmlns="http://www.w3.org/2000/svg">
<circle cx="11.9261" cy="12.0739" r="11.3916" stroke="white" stroke-width="0.91133"/>
<path d="M6.45868 11.1626C5.95537 11.1626 5.54735 11.5706 5.54735 12.0739C5.54735 12.5772 5.95537 12.9853 6.45868 12.9853L6.45868 11.1626ZM18.039 12.7183C18.3949 12.3624 18.3949 11.7854 18.039 11.4295L12.2394 5.62985C11.8835 5.27396 11.3065 5.27396 10.9506 5.62985C10.5947 5.98575 10.5947 6.56277 10.9506 6.91867L16.1058 12.0739L10.9506 17.2292C10.5947 17.5851 10.5947 18.1621 10.9506 18.518C11.3065 18.8739 11.8835 18.8739 12.2394 18.518L18.039 12.7183ZM6.45868 12.9853L17.3946 12.9853L17.3946 11.1626L6.45868 11.1626L6.45868 12.9853Z" fill="white"/>
</svg>
